<svg xmlns="http://www.w3.org/2000/svg" viewBox="-72 -72 1020 428.56" role="img" aria-label="YELLOW placement d">
  <title>YELLOW placement d</title>
  <desc>YELLOW wordmark with the edge-on black hole mark placed beside it</desc>
  <g fill="none" stroke="#000000" stroke-width="3.4" stroke-linecap="butt" stroke-linejoin="miter" stroke-miterlimit="6">
    <path d="M0 0L42 55L84 0M42 55V100" transform="translate(0 0)"/>
    <path d="M0 0V100M0 0H66M0 50H57M0 100H66" transform="translate(156 0)"/>
    <path d="M0 0V100H62" transform="translate(294 0)"/>
    <path d="M0 0V100H62" transform="translate(428 0)"/>
    <path d="M0 50A42 50 0 1 0 84 50A42 50 0 1 0 0 50" transform="translate(562 0)"/>
    <path d="M0 0L40 100L86 0M72 0L118 100L158 0" transform="translate(718 0)"/>
  </g>
  <g fill="none" stroke="#000000" stroke-width="3.4" stroke-linecap="butt">
    <path d="M316.2 228.28A121.8 9.24 0 0 1 559.8 228.28"/>
    <circle cx="438" cy="228.28" r="42" fill="#FFFFFF"/>
    <path d="M316.2 228.28A121.8 9.24 0 0 0 559.8 228.28"/>
  </g>
</svg>
